<?xml version="1.0" standalone="no"?>
<!DOCTYPE svg PUBLIC "-//W3C//DTD SVG 1.1//EN" "http://www.w3.org/Graphics/SVG/1.1/DTD/svg11.dtd" >
<svg xmlns="http://www.w3.org/2000/svg">
<metadata>
This is a custom SVG webfont generated by Font Squirrel.
Copyright   : cThe digitally encoded machine readable outline data for producing the typefaces licensed to you is copyrighted C 2002 by The Foundry London All Rights Reserved
</metadata>
<defs>
<font id="FoundrySterlingBook" horiz-adv-x="1214" >
<font-face units-per-em="2048" ascent="1516" descent="-532" />
<missing-glyph horiz-adv-x="491" />
<glyph unicode=" "  horiz-adv-x="491" />
<glyph unicode="&#x09;" horiz-adv-x="491" />
<glyph unicode="&#xa0;" horiz-adv-x="491" />
<glyph unicode="!" horiz-adv-x="593" d="M205 76q0 39 26.5 65.5t65.5 26.5t65.5 -26.5t26.5 -65.5t-26.5 -65.5t-65.5 -26.5t-65.5 26.5t-26.5 65.5zM215 1366h158l-21 -1034h-110z" />
<glyph unicode="&#x22;" horiz-adv-x="610" d="M113 1366h137l-12 -469h-113zM358 1366h140l-13 -469h-112z" />
<glyph unicode="#" horiz-adv-x="1159" d="M143 598l15 111h182l35 241h-182l14 109h182l43 307h119l-43 -307h203l43 307h118l-43 -307h187l-15 -109h-186l-35 -241h187l-15 -111h-186l-49 -338h-119l49 338h-203l-49 -338h-119l50 338h-183zM459 709h203l34 241h-202z" />
<glyph unicode="$" d="M164 129l69 94q160 -111 308 -123v572q-184 76 -254 141q-86 86 -86 217q0 141 99 232.5t241 105.5v156h116v-152q215 -10 347 -141l-70 -80l-8 8q-10 8 -19.5 14.5t-26 16.5t-31.5 19.5t-38 19.5t-45.5 16t-51 11.5t-57.5 7.5v-504q197 -80 254 -137q109 -100 109 -244 q0 -164 -99.5 -266.5t-263.5 -122.5v-195h-116v191q-221 14 -377 143zM328 1032q0 -80 61 -137q51 -49 152 -88v448q-82 -14 -147.5 -72.5t-65.5 -150.5zM657 106q98 18 163 85t65 178q0 92 -72 159q-18 18 -44 36t-43 27t-39.5 20.5t-29.5 13.5v-519z" />
<glyph unicode="%" horiz-adv-x="1497" d="M92 1016q0 178 80 277.5t223 99.5q133 0 213 -96.5t80 -258.5q0 -172 -80 -269t-221 -97q-135 0 -215 92t-80 252zM207 1020q0 -121 47 -188.5t133 -67.5q88 0 137 71.5t49 202.5q0 123 -47 192.5t-131 69.5q-90 0 -139 -73.5t-49 -206.5zM215 -14l975 1450l88 -64 l-973 -1446zM809 317q0 178 80 277.5t223 99.5q133 0 213 -96t80 -258q0 -172 -80 -269.5t-221 -97.5q-135 0 -215 92t-80 252zM924 322q0 -121 47 -188.5t133 -67.5q88 0 137 71.5t49 202.5q0 123 -47 192.5t-131 69.5q-90 0 -139 -73.5t-49 -206.5z" />
<glyph unicode="&#x26;" horiz-adv-x="1361" d="M113 375q0 80 31.5 154.5t76.5 119.5q47 47 178 123q-55 76 -79.5 114t-47 93t-22.5 106q0 133 97 219.5t247 86.5q143 0 230 -76t87 -201q0 -76 -28.5 -137.5t-78.5 -103.5t-96 -69.5t-102 -53.5l-18 -9l344 -409q43 49 85 162.5t42 246.5h119q0 -156 -53.5 -299 t-108.5 -204q72 -82 125 -108t123 -26v-104h-15q-104 0 -173.5 33t-143.5 112q-174 -170 -408 -170q-176 0 -293.5 115t-117.5 285zM244 381q0 -123 86 -205t213 -80q172 4 309 135l-383 459q-225 -110 -225 -309zM381 1090q0 -53 28.5 -109.5t108.5 -155.5 q139 63 199.5 128t60.5 153q0 84 -50 132t-136 48q-92 0 -151.5 -55t-59.5 -141z" />
<glyph unicode="'" horiz-adv-x="362" d="M113 1366h137l-12 -469h-113z" />
<glyph unicode="(" horiz-adv-x="739" d="M154 608q0 281 103 519.5t310 371.5l70 -82q-338 -270 -338 -819q0 -260 75 -454.5t253 -346.5l-68 -82q-405 289 -405 893z" />
<glyph unicode=")" horiz-adv-x="739" d="M102 1417l70 82q207 -133 310.5 -371.5t103.5 -519.5q0 -604 -406 -893l-67 82q178 152 252.5 346.5t74.5 454.5q0 549 -338 819z" />
<glyph unicode="*" horiz-adv-x="913" d="M113 1104l39 117l241 -95v240h127v-240l242 95l39 -117l-252 -78l164 -223l-103 -72l-153 230l-154 -230l-102 72l164 223z" />
<glyph unicode="+" d="M150 465v108h403v404h109v-404h403v-108h-403v-404h-109v404h-403z" />
<glyph unicode="," horiz-adv-x="483" d="M82 -203q111 156 111 338v21h147v-13q0 -227 -180 -407z" />
<glyph unicode="-" horiz-adv-x="1003" d="M174 465v108h655v-108h-655z" />
<glyph unicode="." horiz-adv-x="442" d="M129 76q0 39 26.5 65.5t65.5 26.5t65.5 -26.5t26.5 -65.5t-26.5 -65.5t-65.5 -26.5t-65.5 26.5t-26.5 65.5z" />
<glyph unicode="/" horiz-adv-x="890" d="M76 -250l622 1661l117 -45l-620 -1661z" />
<glyph unicode="0" d="M104 690q0 326 131.5 514.5t364.5 188.5q244 0 377 -187.5t133 -521.5t-131 -521.5t-372.5 -187.5t-372 187.5t-130.5 527.5zM240 674q0 -281 94 -434.5t270 -153.5q182 0 276.5 154.5t94.5 441.5q0 289 -93.5 444.5t-273.5 155.5q-368 0 -368 -608z" />
<glyph unicode="1" d="M205 1081l426 285h108v-1366h-129v1212l-336 -227z" />
<glyph unicode="2" d="M180 0v109q2 2 51.5 49t116 110.5t111.5 108.5q223 223 313 355t90 259q0 137 -75.5 211t-213.5 74q-76 0 -154.5 -32t-114.5 -56.5t-48 -36.5l-72 78q12 16 54.5 50t142.5 74t209 40q186 0 296.5 -105.5t110.5 -286.5q0 -84 -28.5 -164.5t-91 -163.5t-114.5 -141.5 t-142 -148.5l-271 -268h660v-115h-830z" />
<glyph unicode="3" d="M147 121l70 84l4 -4q6 -6 14.5 -12.5t20.5 -14.5t28.5 -17.5t35 -18.5t42 -17t48 -14.5t55.5 -10.5t61 -4q158 0 251 74t93 203q0 100 -75 180q-55 55 -134 75.5t-227 20.5h-20v113h35q121 0 197.5 17.5t137.5 78.5q66 66 66 170q0 113 -78 182.5t-213 69.5 q-80 0 -158.5 -32t-111.5 -55.5t-47 -37.5l-70 82q8 12 51 46t142.5 74t203.5 40q190 0 301 -100.5t111 -264.5q0 -121 -71.5 -215t-196.5 -111q133 -12 212 -103t79 -222q0 -184 -129.5 -293t-325.5 -109q-121 0 -219.5 35t-131.5 61.5t-51 49.5z" />
<glyph unicode="4" d="M115 332v106l653 928h131v-924h186v-110h-186v-332h-127v332h-657zM252 442h520v742z" />
<glyph unicode="5" d="M172 111l66 88q133 -106 303 -107q162 0 256 88t94 242q0 139 -90 233.5t-256 94.5q-139 0 -244 -66l-61 39v643h731v-111h-604v-432q109 43 206 43q213 0 332 -119.5t119 -314.5q0 -207 -131 -332t-338 -125q-72 0 -136.5 13.5t-105.5 31t-74.5 39t-48 34t-18.5 18.5z " />
<glyph unicode="6" d="M156 641q0 143 24.5 268t80.5 238t161.5 179.5t253.5 66.5q104 0 195.5 -33t126 -59.5t44.5 -40.5l-67 -86q-133 106 -283 106q-119 0 -202.5 -54.5t-128 -148.5t-63.5 -196.5t-19 -218.5q0 -25 1 -36.5t1 -19.5q29 131 137 206t250 75q193 0 302 -123t109 -318 q0 -203 -122.5 -337t-321.5 -134q-109 0 -193 40t-137 105.5t-88 153.5t-48 178.5t-13 188.5zM324 420q0 -141 89 -238.5t228 -97.5q143 0 228 104.5t85 251.5q0 150 -76.5 244t-222.5 94q-147 0 -239 -104t-92 -254z" />
<glyph unicode="7" d="M164 1249v117h903v-104l-563 -1262h-148l574 1249h-766z" />
<glyph unicode="8" d="M141 356q0 145 84 244.5t219 104.5q-125 25 -194.5 112.5t-69.5 208.5q0 162 118 264.5t306 102.5q193 0 311.5 -98.5t118.5 -260.5q0 -123 -67.5 -214t-188.5 -115q143 -16 219 -107.5t76 -237.5q0 -174 -125 -279.5t-332 -105.5q-217 0 -346 102.5t-129 278.5zM276 369 q0 -137 90.5 -215t251.5 -78q147 0 233.5 77.5t86.5 213.5q0 133 -89 209.5t-241 76.5q-150 0 -241 -77.5t-91 -206.5zM313 1028q0 -119 85 -196.5t212 -77.5q125 0 209 76.5t84 195.5q0 121 -81 193.5t-212 72.5q-133 0 -215 -72.5t-82 -191.5z" />
<glyph unicode="9" d="M135 922q0 203 123 337t322 134q109 0 192.5 -40t137 -105.5t88 -153.5t48 -178.5t13.5 -188.5q0 -143 -24.5 -268t-81 -237.5t-162 -179.5t-252.5 -67q-104 0 -195.5 33t-126.5 59.5t-45 41.5l68 86q133 -106 282 -107q119 0 203 54.5t128 148.5t63.5 196.5t19.5 219.5 q0 25 -1 36t-1 19q-29 -131 -137.5 -206t-249.5 -75q-193 0 -302.5 123t-109.5 318zM260 928q0 -150 77 -244t222 -94q147 0 239.5 104.5t92.5 253.5q0 141 -89 238.5t-229 97.5q-143 0 -228 -104.5t-85 -251.5z" />
<glyph unicode=":" horiz-adv-x="442" d="M129 76q0 39 26.5 65.5t65.5 26.5t65.5 -26.5t26.5 -65.5t-26.5 -65.5t-65.5 -26.5t-65.5 26.5t-26.5 65.5zM129 915.5q0 38.5 26.5 65.5t65.5 27t65.5 -27t26.5 -65.5t-26.5 -65.5t-65.5 -27t-65.5 27t-26.5 65.5z" />
<glyph unicode=";" horiz-adv-x="483" d="M82 -203q111 156 111 338v21h147v-13q0 -227 -180 -407zM174 915.5q0 38.5 26.5 65.5t65.5 27t65.5 -27t26.5 -65.5t-26.5 -65.5t-65.5 -27t-65.5 27t-26.5 65.5z" />
<glyph unicode="&#x3c;" d="M123 479v82l921 447l48 -99l-820 -391l820 -387l-45 -98z" />
<glyph unicode="=" d="M121 336v108h973v-108h-973zM121 594v108h973v-108h-973z" />
<glyph unicode="&#x3e;" d="M123 131l819 387l-819 391l47 99l922 -447v-82l-924 -446z" />
<glyph unicode="?" horiz-adv-x="1009" d="M113 1272q8 10 51 35.5t135 55.5t184 30q172 0 275.5 -103.5t103.5 -273.5q0 -158 -119 -277q-35 -35 -120.5 -88t-110.5 -78q-8 -8 -14 -16t-11.5 -18.5t-8.5 -17.5t-6 -22.5t-4 -22.5t-1 -29v-31v-40v-44h-111q-4 78 -4 114q0 80 7.5 113t40 65.5t111.5 88t118 94.5 q92 92 92 209q0 115 -75 187.5t-193 72.5q-141 0 -283 -94zM319 76q0 39 27 65.5t66 26.5t65.5 -26.5t26.5 -65.5t-26.5 -65.5t-65.5 -26.5t-66 26.5t-27 65.5z" />
<glyph unicode="@" horiz-adv-x="1589" d="M98 629q0 324 220.5 538.5t549.5 214.5q270 0 446.5 -151.5t176.5 -384.5q0 -221 -148.5 -357.5t-388.5 -136.5q-2 0 -43 4l17 95q-123 -98 -240 -99q-100 0 -162.5 70t-62.5 182q0 188 130 316.5t322 128.5q119 0 215 -41l-106 -557q154 12 256 114q104 104 104 279 q0 193 -144 314.5t-374 121.5q-283 0 -467 -185.5t-184 -469.5q0 -246 156.5 -395.5t400.5 -149.5q41 0 82 4t76 11t66.5 16.5t58 19.5t49 20.5t40 20.5t29 17.5t19.5 11.5l8 6l60 -84l-3 -2q-162 -129 -426 -148q-35 -2 -69 -2q-289 0 -476.5 183.5t-187.5 474.5zM578 610 q0 -66 38.5 -109.5t98.5 -43.5q106 0 217 110l69 375q-57 12 -86 12q-137 0 -237 -102.5t-100 -241.5z" />
<glyph unicode="A" horiz-adv-x="1189" d="M23 0l497 1366h148l499 -1366h-139l-139 391h-596l-139 -391h-131zM332 504h518l-260 725z" />
<glyph unicode="B" horiz-adv-x="1138" d="M176 0v1366h344q129 0 210 -18.5t144 -81.5q106 -106 107 -265q0 -117 -63.5 -198.5t-167.5 -102.5q276 -43 276 -313q0 -160 -102 -262q-86 -86 -197 -105.5t-336 -19.5h-45h-170zM307 109h150q147 0 227 18t141 80q68 68 68 176q0 100 -72 172q-20 20 -43.5 34.5 t-57.5 24t-54.5 15.5t-66.5 8t-59 2h-69h-61h-103v-530zM307 745h135q246 0 338 93q68 68 68 170q0 106 -68 174q-16 16 -36.5 28.5t-38 20.5t-47 14t-45 9t-51.5 4.5t-48 1.5h-54h-50h-103v-515z" />
<glyph unicode="C" horiz-adv-x="1241" d="M113 672q0 332 190.5 526.5t472.5 194.5q109 0 204 -25t137 -48.5t59 -39.5l-60 -96q-16 12 -48 28.5t-114 38t-168 21.5q-229 0 -384.5 -159t-155.5 -425q0 -270 142 -431t384 -161q37 0 75 4t67.5 11.5t59.5 16.5t52.5 18.5t41.5 19.5t31.5 17t22.5 14l8 4l62 -95 q-12 -14 -59.5 -41.5t-154 -58.5t-222.5 -31q-279 0 -461 187.5t-182 509.5z" />
<glyph unicode="D" horiz-adv-x="1380" d="M176 0v1366h262q242 0 384.5 -31.5t248.5 -138.5q197 -197 197 -506q0 -319 -197 -516q-111 -111 -240 -142.5t-346 -31.5h-309zM307 109h187q176 0 285.5 25.5t201.5 117.5q154 154 154 442q0 266 -162 428q-86 86 -196.5 110.5t-334.5 24.5h-135v-1148z" />
<glyph unicode="E" horiz-adv-x="1019" d="M176 0v1366h721v-111h-592v-485h555v-108h-555v-547h608v-115h-737z" />
<glyph unicode="F" horiz-adv-x="960" d="M176 0v1366h703v-111h-572v-485h535v-108h-535v-662h-131z" />
<glyph unicode="G" horiz-adv-x="1351" d="M113 672q0 332 190.5 526.5t472.5 194.5q109 0 204 -25t137 -48.5t59 -39.5l-60 -96q-16 12 -48 28.5t-114 38t-168 21.5q-229 0 -384.5 -159t-155.5 -425q0 -270 142 -433t382 -163q41 0 81 3t69.5 9.5t56.5 13.5t45 13t31.5 12.5t21.5 10.5l8 4v399h-313v107h442v-574 q-16 -14 -57 -35.5t-153.5 -51.5t-241.5 -30q-283 0 -465 187.5t-182 511.5z" />
<glyph unicode="H" horiz-adv-x="1304" d="M176 0v1366h131v-592h690v592h131v-1366h-131v664h-690v-664h-131z" />
<glyph unicode="I" horiz-adv-x="483" d="M176 0v1366h131v-1366h-131z" />
<glyph unicode="J" horiz-adv-x="733" d="M16 53l52 97q104 -59 184 -60q55 0 94 19.5t57.5 44t27.5 67.5t10 66.5t1 66.5v17v995h131v-942v-46v-51q0 -9 -2 -47t-5 -51.5t-9 -44t-15.5 -48t-22.5 -39t-32 -40.5q-82 -82 -213 -82q-68 0 -131 18.5t-91 35t-36 24.5z" />
<glyph unicode="K" horiz-adv-x="1103" d="M176 0v1366h129v-643l598 643h150l-617 -670l647 -696h-163l-615 653v-653h-129z" />
<glyph unicode="L" horiz-adv-x="962" d="M176 0v1366h131v-1251h588v-115h-719z" />
<glyph unicode="M" horiz-adv-x="1789" d="M160 0l155 1366h148l434 -1178l424 1178h149l160 -1366h-135l-129 1176l-424 -1176h-108l-428 1176l-125 -1176h-121z" />
<glyph unicode="N" horiz-adv-x="1298" d="M176 0v1366h143l687 -1184l-5 1184h121v-1366h-149l-680 1174l4 -1174h-121z" />
<glyph unicode="O" horiz-adv-x="1435" d="M113 672q0 317 171 518t443 201q260 0 428 -197t168 -506q0 -315 -170 -514t-442 -199q-258 0 -428 197t-170 500zM252 688q0 -262 132 -431t335 -169q213 0 339 166t126 442q0 258 -132 420t-339 162q-209 0 -335 -162t-126 -428z" />
<glyph unicode="P" horiz-adv-x="1105" d="M176 0v1366h311q150 0 243 -19.5t161 -86.5q111 -111 110 -287q0 -180 -108 -289q-57 -57 -132 -84t-131.5 -31t-170.5 -4h-33h-121v-565h-129zM305 672h113q111 0 154.5 2t108 19.5t103.5 56.5q86 86 86 225q0 133 -84 217q-33 33 -90 48t-97 17.5t-124 2.5h-170v-588z " />
<glyph unicode="Q" horiz-adv-x="1435" d="M113 672q0 317 171 518t443 201q260 0 428 -197t168 -506q0 -283 -144.5 -483.5t-412.5 -218.5q125 -166 422 -166q29 0 56.5 2t44 4t18.5 2l14 -96q-74 -18 -182 -19q-356 0 -529 277q-199 25 -348 208t-149 474zM252 688q0 -262 132 -431t335 -169q213 0 339 166 t126 442q0 258 -132 420t-339 162q-209 0 -335 -162t-126 -428z" />
<glyph unicode="R" horiz-adv-x="1126" d="M176 0v1366h281q117 0 172 -3t124.5 -26.5t118.5 -72.5q106 -106 107 -275q0 -145 -86 -233q-90 -94 -219 -107q59 -4 108 -53q41 -41 101 -170l190 -426h-135l-156 350q-76 172 -138 215t-228 43h-111v-608h-129zM305 715h39h55h62q14 0 56 2t60.5 5t52.5 10t54.5 17.5 t46 26t43.5 33.5q76 76 76 188q0 115 -68 183q-31 31 -63.5 48t-85.5 23t-71.5 7.5t-88.5 1.5h-168v-545z" />
<glyph unicode="S" horiz-adv-x="1056" d="M100 119l68 94q176 -123 321 -123q147 0 227.5 75t80.5 200q0 90 -70 159q-59 59 -247.5 140t-260.5 153q-82 82 -82 223q0 154 111.5 252.5t292.5 98.5q229 0 374 -146l-69 -82l-10 8q-12 10 -24.5 19.5t-32 23t-43 23.5t-51.5 20.5t-62.5 15.5t-71.5 5 q-127 0 -207 -66.5t-80 -169.5q0 -82 60 -141q53 -53 242.5 -131t258.5 -147q106 -106 107 -248q0 -178 -113.5 -290t-320.5 -112q-224 1 -398 146z" />
<glyph unicode="T" horiz-adv-x="1089" d="M66 1255v111h958v-111h-414v-1255h-131v1255h-413z" />
<glyph unicode="U" horiz-adv-x="1263" d="M156 588v39v739h129v-864q0 -80 2 -119t22.5 -98.5t61.5 -100.5q96 -96 268 -96q158 0 246 88q68 68 81 152t13 315v723h129v-657v-85v-85q0 -20 -1 -73.5t-5 -75t-9.5 -64.5t-14.5 -65.5t-21.5 -54.5t-29.5 -55.5t-40 -46.5q-129 -129 -354 -129t-359 134 q-57 57 -83.5 138t-30.5 144.5t-4 196.5z" />
<glyph unicode="V" d="M49 1366h139l418 -1253l432 1253h127l-481 -1366h-164z" />
<glyph unicode="W" horiz-adv-x="1812" d="M80 1366h137l293 -1260l307 1260h193l305 -1260l293 1260h125l-338 -1366h-181l-305 1264l-311 -1264h-180z" />
<glyph unicode="X" horiz-adv-x="1142" d="M55 0l437 711l-408 655h154l331 -553l330 553h143l-403 -657l448 -709h-151l-371 606l-368 -606h-142z" />
<glyph unicode="Y" horiz-adv-x="1107" d="M53 1366h144l364 -700l361 700h133l-437 -827v-539h-129v539z" />
<glyph unicode="Z" horiz-adv-x="1112" d="M94 0v96l754 1159h-713v111h864v-100l-747 -1151h764v-115h-922z" />
<glyph unicode="[" horiz-adv-x="661" d="M176 -250v1616h410v-109h-281v-1398h281v-109h-410z" />
<glyph unicode="\" horiz-adv-x="890" d="M76 1366l117 45l622 -1661l-119 -45z" />
<glyph unicode="]" horiz-adv-x="661" d="M76 -141h280v1398h-280v109h409v-1616h-409v109z" />
<glyph unicode="^" d="M160 518l401 848h94l400 -848h-133l-316 690l-315 -690h-131z" />
<glyph unicode="_" horiz-adv-x="962" d="M-4 -141h971v-109h-971v109z" />
<glyph unicode="`" horiz-adv-x="630" d="M76 1282l55 121l424 -205l-41 -80z" />
<glyph unicode="a" horiz-adv-x="950" d="M80 279q0 322 567 321h51v37q0 156 -49 207q-57 57 -186 57q-135 0 -273 -78l-51 86q10 10 45 31t119 45.5t174 24.5q172 0 266 -95q47 -47 62.5 -106t15.5 -176v-633h-112v74l-9 -4q-8 -6 -19 -12.5t-29.5 -15.5t-38 -17.5t-45 -16.5t-52.5 -14t-58.5 -10t-62.5 -4 q-141 0 -228 83t-87 216zM207 276q0 -80 54 -134t163 -54q31 0 63.5 5t58 12.5t54.5 18.5t43 17t35 17l20 10v332h-55q-436 -1 -436 -224z" />
<glyph unicode="b" horiz-adv-x="1060" d="M143 45v1430h123v-555q111 88 275 88q197 0 314.5 -136.5t117.5 -363.5q0 -236 -139.5 -382t-358.5 -146q-154 -1 -332 65zM266 123q117 -35 213 -35q168 0 267.5 113.5t99.5 302.5q0 178 -87 286.5t-231 108.5q-27 0 -54.5 -4t-49 -9t-43 -14.5t-35.5 -16.5t-29.5 -17.5 t-23.5 -15.5t-19 -11l-8 -8v-680z" />
<glyph unicode="c" horiz-adv-x="950" d="M88 471q0 238 136 387.5t354 149.5q78 0 150.5 -23.5t104 -43t41.5 -30.5l-55 -86q-119 72 -248 72q-158 0 -257 -115.5t-99 -292.5q0 -178 96.5 -286.5t247.5 -108.5q33 0 63.5 4t57.5 10.5t48.5 13.5t40.5 15t31.5 14.5t22.5 12.5l13 6l53 -92q-6 -8 -47 -29.5 t-123 -45t-166 -23.5q-207 0 -336 133t-129 358z" />
<glyph unicode="d" horiz-adv-x="1062" d="M88 475q0 236 135 384.5t348 148.5q131 0 224 -56v523h125v-1475h-113v74q-14 -12 -44 -29.5t-100.5 -41t-142.5 -23.5q-195 0 -313.5 136t-118.5 359zM215 471q0 -170 89 -276.5t228 -106.5q27 0 51.5 3t45 8t41 13.5t34 14.5t31 16.5t24.5 15.5t20.5 15t15.5 10v650 q-115 66 -224 65q-160 0 -258 -117.5t-98 -310.5z" />
<glyph unicode="e" horiz-adv-x="1011" d="M88 485q0 238 122 380.5t327 142.5q174 0 280.5 -126t106.5 -350q0 -4 -2 -28.5t-2 -36.5h-705q0 -168 88 -270.5t250 -102.5q33 0 65.5 4t59.5 11.5t50.5 14.5t43 16.5t32.5 15.5t23 12l11 6l55 -94q-4 -6 -45 -28.5t-128 -47t-177 -24.5q-211 0 -333 139t-122 366z M219 571h580q0 129 -64.5 230.5t-195.5 101.5t-221.5 -90t-98.5 -242z" />
<glyph unicode="f" horiz-adv-x="720" d="M47 883v100h174v158q0 188 92 280q78 78 211 78q131 0 207 -63l-49 -86q-61 41 -145 41q-86 0 -136 -50q-57 -57 -57 -200v-158h315v-100h-315v-883h-123v883h-174z" />
<glyph unicode="g" horiz-adv-x="1062" d="M88 483q0 227 138.5 376t351.5 149q35 0 71.5 -4.5t68.5 -11.5t59.5 -15t53 -17.5t42 -15.5t31 -13t16.5 -7v-938q0 -135 -19.5 -211t-73.5 -131q-109 -109 -319 -109q-98 0 -188.5 31t-126 53.5t-50.5 36.5l56 86l10 -8q12 -8 26.5 -15.5t35 -18.5t45 -20.5t53 -17.5 t62.5 -13t69 -5q160 0 231 75q43 43 53.5 98.5t10.5 188.5v76q-152 -84 -287 -84q-184 0 -302 136t-118 349zM215 485q0 -170 84 -274.5t221 -104.5q29 0 59.5 5.5t56.5 12.5t48.5 16.5t41.5 19.5t32.5 18t23.5 15l13 8v651q-111 47 -224 47q-160 0 -258 -115t-98 -299z" />
<glyph unicode="h" horiz-adv-x="1030" d="M143 0v1475h123v-562q8 8 47 29t117 43.5t150 22.5q150 0 225 -76q61 -61 78.5 -129t17.5 -211v-592h-123v573q0 82 -2 116t-14 80t-41 75q-55 55 -154 55q-66 0 -140.5 -24.5t-114.5 -45t-46 -26.5v-803h-123z" />
<glyph unicode="i" horiz-adv-x="409" d="M123 1315q0 33 24.5 57.5t57.5 24.5t57.5 -24.5t24.5 -57.5t-24.5 -57.5t-57.5 -24.5t-57.5 24.5t-24.5 57.5zM143 0v983h123v-983h-123z" />
<glyph unicode="j" horiz-adv-x="409" d="M-160 -436l29 96q55 -18 104 -18q102 0 136 60t34 169v1112h123v-1098q0 -102 -17.5 -163.5t-64.5 -108.5q-78 -78 -209 -78q-69 0 -135 29zM123 1315q0 33 24.5 57.5t57.5 24.5t57.5 -24.5t24.5 -57.5t-24.5 -57.5t-57.5 -24.5t-57.5 24.5t-24.5 57.5z" />
<glyph unicode="k" horiz-adv-x="958" d="M143 0v1475h123v-928l459 436h162l-484 -446l525 -537h-162l-500 520v-520h-123z" />
<glyph unicode="l" horiz-adv-x="409" d="M143 0v1475h123v-1475h-123z" />
<glyph unicode="m" horiz-adv-x="1615" d="M143 0v983h117v-72q160 96 311 97q162 0 244 -115q186 115 356 115q137 0 220 -82q47 -47 69.5 -117t24.5 -119t2 -170v-520h-123v586q0 201 -57 258q-51 51 -148 51q-145 0 -299 -90q18 -39 19 -234v-571h-123v539q0 104 -1 144t-13.5 88t-39.5 75q-51 51 -143 51 q-63 0 -136 -23.5t-105.5 -41t-51.5 -29.5v-803h-123z" />
<glyph unicode="n" horiz-adv-x="1030" d="M143 0v983h117v-72q154 96 324 97q145 0 227 -82q55 -55 72.5 -124t17.5 -210v-592h-123v573q0 82 -2 116t-14 80t-41 75q-55 55 -154 55q-66 0 -140.5 -24.5t-114.5 -45t-46 -26.5v-803h-123z" />
<glyph unicode="o" horiz-adv-x="1071" d="M88 491.5q0 235.5 122 376t333 140.5q201 0 320.5 -141.5t119.5 -383.5q0 -231 -122 -369.5t-329 -138.5q-203 0 -323.5 140.5t-120.5 376zM215 495.5q0 -184.5 91 -298t231 -113.5q152 0 235.5 108.5t83.5 294.5q0 184 -91 299t-230 115q-147 0 -233.5 -110.5 t-86.5 -295z" />
<glyph unicode="p" horiz-adv-x="1060" d="M143 -436v1419h117v-68q123 92 283 93q193 0 311.5 -136.5t118.5 -359.5q0 -236 -135.5 -384t-348.5 -148q-135 0 -223 55v-471h-123zM266 154q2 0 11.5 -6.5t18.5 -11.5t24.5 -12t33 -13.5t39 -11.5t47 -8t52.5 -3q160 0 257 118t97 310q0 170 -88 276.5t-228 106.5 q-63 0 -128.5 -23.5t-92 -41t-43.5 -31.5v-649z" />
<glyph unicode="q" horiz-adv-x="1060" d="M88 479q0 236 139.5 382.5t358.5 146.5q154 0 332 -66v-1378h-123v504q-111 -88 -275 -88q-197 0 -314.5 136t-117.5 363zM215 483q0 -178 87 -286.5t230 -108.5q27 0 54.5 4t49 9t43 14.5t36 16.5t30 17.5t23.5 15.5t18 11l9 8v680q-117 35 -213 35q-168 0 -267.5 -114 t-99.5 -302z" />
<glyph unicode="r" horiz-adv-x="714" d="M143 0v983h117v-129q129 156 311 156q53 0 103 -17l-29 -102q-43 6 -80 6q-49 0 -94 -12.5t-74.5 -30.5t-55.5 -40.5t-40 -40t-25 -32.5l-10 -16v-725h-123z" />
<glyph unicode="s" horiz-adv-x="851" d="M66 72l53 94q123 -82 268 -82q111 0 173.5 46t62.5 126q0 25 -7.5 46.5t-15.5 36.5t-28.5 31.5t-32 26t-41 22.5t-39.5 17t-43 16.5t-39 14.5q-59 25 -86 36t-71 36.5t-63.5 50t-36 66.5t-16.5 94q0 117 93.5 187.5t234.5 70.5q78 0 151.5 -21.5t105.5 -40t40 -26.5 l-49 -89q-123 70 -238 70q-88 0 -149.5 -41t-61.5 -106q0 -20 5.5 -39t11.5 -32t21.5 -26.5t24.5 -21.5t33.5 -19.5t35 -15.5t40 -16.5t39.5 -16.5q158 -63 209 -102q98 -74 99 -197q0 -137 -95.5 -215t-259.5 -78q-84 0 -164.5 24t-118.5 44.5t-46 28.5z" />
<glyph unicode="t" horiz-adv-x="757" d="M45 883v100h172v279h123v-279h315v-100h-315v-557v-23q0 -59 2 -88t15.5 -63.5t47 -49t89.5 -14.5q27 0 53 4t43.5 10.5t32 11.5t16.5 5l33 -94q-94 -47 -195 -48q-133 0 -203 70q-39 39 -48 92.5t-9 161.5v582h-172z" />
<glyph unicode="u" horiz-adv-x="1030" d="M129 332v48v42v561h123v-586q0 -68 2 -101.5t15.5 -77.5t39.5 -71q59 -59 154 -59q31 0 61.5 5t59 13.5t53.5 17.5t47.5 19.5t37.5 18.5t27.5 15t14.5 7v799h123v-983h-113v78q-147 -98 -319 -98q-150 0 -238 88q-18 18 -31.5 39.5t-23.5 39t-16.5 48t-9.5 44t-5 49.5 t-2 44z" />
<glyph unicode="v" horiz-adv-x="1011" d="M41 983h135l326 -854l325 854h127l-385 -983h-145z" />
<glyph unicode="w" horiz-adv-x="1513" d="M70 983h125l231 -858l246 858h164l241 -858l236 858h121l-287 -983h-152l-247 874l-252 -874h-152z" />
<glyph unicode="x" horiz-adv-x="978" d="M45 0l361 504l-336 479h151l264 -389l267 389h139l-334 -477l356 -506h-149l-289 418l-289 -418h-141z" />
<glyph unicode="y" horiz-adv-x="989" d="M-41 -430l33 100q86 -25 139 -24q102 0 160 57q43 43 71.5 99.5t75.5 172.5l-405 1008h135l338 -850l305 850h127l-389 -1053q-78 -211 -172 -305q-90 -90 -242 -90q-72 0 -176 35z" />
<glyph unicode="z" horiz-adv-x="948" d="M86 0v96l578 783h-549v104h700v-98l-569 -776h590v-109h-750z" />
<glyph unicode="{" horiz-adv-x="686" d="M104 530v107q47 0 70 22q27 27 27 168v220q0 117 15 166t48 81q70 72 242 72h104v-109h-71q-137 0 -172 -32.5t-35 -171.5v-219v-39v-40q0 -9 -1 -34t-3 -36t-6.5 -27.5t-11.5 -28t-15 -19.5q-16 -16 -45 -26q29 -10 45 -27q8 -8 15 -19.5t11.5 -27.5t6.5 -27.5t3 -36 t1 -33.5v-40v-39v-271q0 -139 34.5 -171.5t172.5 -32.5h71v-109h-104q-172 0 -242 72q-33 33 -48 82t-15 166v270q0 141 -27 168q-23 22 -70 22z" />
<glyph unicode="|" horiz-adv-x="520" d="M193 -250v1616h135v-1616h-135z" />
<glyph unicode="}" horiz-adv-x="686" d="M76 -141h71q137 0 172 32.5t35 171.5v271v39v40q0 9 1 33.5t3 36t6.5 27.5t11.5 27.5t15 19.5q18 16 45 27q-27 10 -45 26q-8 8 -15 19.5t-11.5 28t-6.5 27.5t-3 35.5t-1 34.5v40v39v219q0 139 -34.5 171.5t-172.5 32.5h-71v109h104q172 0 242 -72q33 -33 48 -82t15 -165 v-220q0 -141 27 -168q23 -23 70 -22v-107q-47 0 -70 -22q-27 -27 -27 -168v-270q0 -117 -15 -166t-48 -82q-70 -72 -242 -72h-104v109z" />
<glyph unicode="~" d="M168 504q84 135 240 135q84 0 215 -58.5t196 -58.5q74 0 150 84l78 -71q-102 -133 -226 -134q-82 0 -217 58.5t-198 58.5q-82 0 -154 -80z" />
<glyph horiz-adv-x="1189" d="M23 0l497 1366h148l499 -1366h-139l-139 391h-596l-139 -391h-131zM332 504h518l-260 725zM344 1577q0 39 26.5 65.5t65.5 26.5t65.5 -26.5t26.5 -65.5t-26.5 -65.5t-65.5 -26.5t-65.5 26.5t-26.5 65.5zM655 1577q0 39 27 65.5t65.5 26.5t65.5 -26.5t27 -65.5t-27 -65.5 t-65.5 -26.5t-65.5 26.5t-27 65.5z" />
<glyph horiz-adv-x="1189" d="M23 0l497 1366h148l499 -1366h-139l-139 391h-596l-139 -391h-131zM332 504h518l-260 725zM389 1669q0 84 59.5 142.5t141.5 58.5q84 0 142.5 -59.5t58.5 -141.5q0 -84 -59.5 -142.5t-141.5 -58.5t-141.5 58.5t-59.5 142.5zM475 1669q0 -47 34 -81t81 -34q49 0 83 34 t34 81q0 49 -34 83t-83 34q-47 0 -81 -35t-34 -82z" />
<glyph horiz-adv-x="1241" d="M113 672q0 332 190.5 526.5t472.5 194.5q109 0 204 -25t137 -48.5t59 -39.5l-60 -96q-16 12 -49 28.5t-114 38t-167 21.5q-229 0 -384.5 -159t-155.5 -425q0 -270 143 -431t383 -161q37 0 75 4t67.5 11.5t59.5 16.5t52.5 18.5t41.5 19.5t31.5 17t22.5 14l8 4l62 -95 q-16 -16 -61.5 -42.5t-152 -57.5t-222.5 -31l-19 -92q14 10 54 11q76 0 124 -49.5t48 -127.5q0 -86 -60.5 -134t-138.5 -48q-98 0 -146 41l33 76q39 -25 101 -25q57 0 80.5 27t23.5 59q0 39 -24.5 63.5t-63.5 24.5q-45 0 -86 -30l-53 36l35 175q-102 10 -197.5 57 t-176.5 128t-129 212t-48 293z" />
<glyph horiz-adv-x="1019" d="M176 0v1366h721v-111h-592v-485h555v-108h-555v-547h608v-115h-737zM297 1548l424 205l55 -121l-438 -164z" />
<glyph horiz-adv-x="1298" d="M176 0v1366h143l687 -1184l-5 1184h121v-1366h-149l-680 1174l4 -1174h-121zM315 1548q104 88 199 88q41 0 114.5 -23.5t110.5 -23.5q76 0 142 56l59 -82q-92 -92 -203 -93q-39 0 -112.5 23t-112.5 23q-61 0 -137 -48z" />
<glyph unicode="&#x85;" horiz-adv-x="1435" d="M113 672q0 317 171 518t443 201q260 0 428 -197t168 -506q0 -315 -170 -514t-442 -199q-258 0 -428 197t-170 500zM252 688q0 -262 132 -431t335 -169q213 0 339 166t126 442q0 258 -132 420t-339 162q-209 0 -335 -162t-126 -428zM473 1577q0 39 26.5 65.5t65.5 26.5 t65.5 -26.5t26.5 -65.5t-26.5 -65.5t-65.5 -26.5t-65.5 26.5t-26.5 65.5zM784 1577q0 39 27 65.5t65.5 26.5t65.5 -26.5t27 -65.5t-27 -65.5t-65.5 -26.5t-65.5 26.5t-27 65.5z" />
<glyph horiz-adv-x="1263" d="M156 588v39v739h129v-864q0 -80 2 -119t22.5 -98.5t61.5 -100.5q96 -96 268 -96q158 0 246 88q68 68 81 152t13 315v723h129v-657v-85v-85q0 -20 -1 -73.5t-5 -75t-9.5 -64.5t-14.5 -65.5t-21.5 -54.5t-29.5 -55.5t-40 -46.5q-129 -129 -354 -129t-359 134 q-57 57 -83.5 138t-30.5 144.5t-4 196.5zM385 1577q0 39 26.5 65.5t65.5 26.5t65.5 -26.5t26.5 -65.5t-26.5 -65.5t-65.5 -26.5t-65.5 26.5t-26.5 65.5zM696 1577q0 39 27 65.5t65.5 26.5t65.5 -26.5t27 -65.5t-27 -65.5t-65.5 -26.5t-65.5 26.5t-27 65.5z" />
<glyph horiz-adv-x="950" d="M80 279q0 322 567 321h51v37q0 156 -49 207q-57 57 -186 57q-135 0 -273 -78l-51 86q10 10 45 31t119 45.5t174 24.5q172 0 266 -95q47 -47 62.5 -106t15.5 -176v-633h-112v74l-9 -4q-8 -6 -19 -12.5t-29.5 -15.5t-38 -17.5t-45 -16.5t-52.5 -14t-58.5 -10t-62.5 -4 q-141 0 -228 83t-87 216zM207 276q0 -80 54 -134t163 -54q31 0 63.5 5t58 12.5t54.5 18.5t43 17t35 17l20 10v332h-55q-436 -1 -436 -224zM236 1198l423 205l56 -121l-439 -164z" />
<glyph horiz-adv-x="950" d="M80 279q0 322 567 321h51v37q0 156 -49 207q-57 57 -186 57q-135 0 -273 -78l-51 86q10 10 45 31t119 45.5t174 24.5q172 0 266 -95q47 -47 62.5 -106t15.5 -176v-633h-112v74l-9 -4q-8 -6 -19 -12.5t-29.5 -15.5t-38 -17.5t-45 -16.5t-52.5 -14t-58.5 -10t-62.5 -4 q-141 0 -228 83t-87 216zM207 276q0 -80 54 -134t163 -54q31 0 63.5 5t58 12.5t54.5 18.5t43 17t35 17l20 10v332h-55q-436 -1 -436 -224zM244 1282l55 121l424 -205l-41 -80z" />
<glyph horiz-adv-x="950" d="M80 279q0 322 567 321h51v37q0 156 -49 207q-57 57 -186 57q-135 0 -273 -78l-51 86q10 10 45 31t119 45.5t174 24.5q172 0 266 -95q47 -47 62.5 -106t15.5 -176v-633h-112v74l-9 -4q-8 -6 -19 -12.5t-29.5 -15.5t-38 -17.5t-45 -16.5t-52.5 -14t-58.5 -10t-62.5 -4 q-141 0 -228 83t-87 216zM154 1200l315 203l311 -203l-53 -80l-258 142l-258 -142zM207 276q0 -80 54 -134t163 -54q31 0 63.5 5t58 12.5t54.5 18.5t43 17t35 17l20 10v332h-55q-436 -1 -436 -224z" />
<glyph horiz-adv-x="950" d="M80 279q0 322 567 321h51v37q0 156 -49 207q-57 57 -186 57q-135 0 -273 -78l-51 86q10 10 45 31t119 45.5t174 24.5q172 0 266 -95q47 -47 62.5 -106t15.5 -176v-633h-112v74l-9 -4q-8 -6 -19 -12.5t-29.5 -15.5t-38 -17.5t-45 -16.5t-52.5 -14t-58.5 -10t-62.5 -4 q-141 0 -228 83t-87 216zM207 276q0 -80 54 -134t163 -54q31 0 63.5 5t58 12.5t54.5 18.5t43 17t35 17l20 10v332h-55q-436 -1 -436 -224zM238 1259.5q0 38.5 26.5 65.5t65.5 27t65.5 -27t26.5 -65.5t-26.5 -65.5t-65.5 -27t-65.5 27t-26.5 65.5zM549 1259.5 q0 38.5 26.5 65.5t65.5 27t65.5 -27t26.5 -65.5t-26.5 -65.5t-65.5 -27t-65.5 27t-26.5 65.5z" />
<glyph horiz-adv-x="950" d="M80 279q0 322 567 321h51v37q0 156 -49 207q-57 57 -186 57q-135 0 -273 -78l-51 86q10 10 45 31t119 45.5t174 24.5q172 0 266 -95q47 -47 62.5 -106t15.5 -176v-633h-112v74l-9 -4q-8 -6 -19 -12.5t-29.5 -15.5t-38 -17.5t-45 -16.5t-52.5 -14t-58.5 -10t-62.5 -4 q-141 0 -228 83t-87 216zM172 1251q104 88 199 88q41 0 114.5 -23.5t110.5 -23.5q76 0 141 56l60 -82q-92 -92 -203 -92q-39 0 -112.5 22.5t-112.5 22.5q-61 0 -138 -48zM207 276q0 -80 54 -134t163 -54q31 0 63.5 5t58 12.5t54.5 18.5t43 17t35 17l20 10v332h-55 q-436 -1 -436 -224z" />
<glyph horiz-adv-x="950" d="M80 279q0 322 567 321h51v37q0 156 -49 207q-57 57 -186 57q-135 0 -273 -78l-51 86q10 10 45 31t119 45.5t174 24.5q172 0 266 -95q47 -47 62.5 -106t15.5 -176v-633h-112v74l-9 -4q-8 -6 -19 -12.5t-29.5 -15.5t-38 -17.5t-45 -16.5t-52.5 -14t-58.5 -10t-62.5 -4 q-141 0 -228 83t-87 216zM207 276q0 -80 54 -134t163 -54q31 0 63.5 5t58 12.5t54.5 18.5t43 17t35 17l20 10v332h-55q-436 -1 -436 -224zM274 1292q0 84 59.5 142.5t141.5 58.5q84 0 142.5 -59.5t58.5 -141.5q0 -84 -59.5 -142t-141.5 -58t-141.5 58t-59.5 142zM360 1292 q0 -47 34 -80.5t81 -33.5q49 0 83 33.5t34 80.5q0 49 -34 83t-83 34q-47 0 -81 -35t-34 -82z" />
<glyph horiz-adv-x="950" d="M88 471q0 238 136 387.5t354 149.5q78 0 151.5 -23.5t104 -43t40.5 -30.5l-55 -86q-119 72 -248 72q-158 0 -257 -115.5t-99 -292.5q0 -178 96.5 -286.5t247.5 -108.5q33 0 63.5 4t57.5 10.5t48.5 13.5t40.5 15t31.5 14.5t22.5 12.5l13 6l53 -92q-6 -8 -47 -29.5 t-123 -45t-164 -23.5l-16 -89q14 10 51 11q76 0 122 -47.5t46 -122.5q0 -82 -58.5 -130t-136.5 -48q-94 0 -141 40l33 74q39 -25 98 -24q55 0 77.5 25.5t22.5 58.5q0 37 -23.5 60.5t-62.5 23.5q-43 0 -82 -29l-53 35l35 168q-162 27 -270.5 150.5t-108.5 334.5z" />
<glyph horiz-adv-x="1011" d="M88 485q0 238 122 380.5t327 142.5q174 0 280.5 -126t106.5 -350q0 -4 -2 -28.5t-2 -36.5h-705q0 -168 88 -270.5t250 -102.5q33 0 65.5 4t59.5 11.5t50.5 14.5t43 16.5t32.5 15.5t23 12l11 6l55 -94q-4 -6 -45 -28.5t-128 -47t-177 -24.5q-211 0 -333 139t-122 366z M219 571h580q0 129 -64.5 230.5t-195.5 101.5t-221.5 -90t-98.5 -242zM291 1198l424 205l55 -121l-438 -164z" />
<glyph horiz-adv-x="1011" d="M88 485q0 238 122 380.5t327 142.5q174 0 280.5 -126t106.5 -350q0 -4 -2 -28.5t-2 -36.5h-705q0 -168 88 -270.5t250 -102.5q33 0 65.5 4t59.5 11.5t50.5 14.5t43 16.5t32.5 15.5t23 12l11 6l55 -94q-4 -6 -45 -28.5t-128 -47t-177 -24.5q-211 0 -333 139t-122 366z M219 571h580q0 129 -64.5 230.5t-195.5 101.5t-221.5 -90t-98.5 -242zM274 1282l56 121l424 -205l-41 -80z" />
<glyph horiz-adv-x="1011" d="M88 485q0 238 122 380.5t327 142.5q174 0 280.5 -126t106.5 -350q0 -4 -2 -28.5t-2 -36.5h-705q0 -168 88 -270.5t250 -102.5q33 0 65.5 4t59.5 11.5t50.5 14.5t43 16.5t32.5 15.5t23 12l11 6l55 -94q-4 -6 -45 -28.5t-128 -47t-177 -24.5q-211 0 -333 139t-122 366z M211 1200l315 203l312 -203l-54 -80l-258 142l-258 -142zM219 571h580q0 129 -64.5 230.5t-195.5 101.5t-221.5 -90t-98.5 -242z" />
<glyph horiz-adv-x="1011" d="M88 485q0 238 122 380.5t327 142.5q174 0 280.5 -126t106.5 -350q0 -4 -2 -28.5t-2 -36.5h-705q0 -168 88 -270.5t250 -102.5q33 0 65.5 4t59.5 11.5t50.5 14.5t43 16.5t32.5 15.5t23 12l11 6l55 -94q-4 -6 -45 -28.5t-128 -47t-177 -24.5q-211 0 -333 139t-122 366z M219 571h580q0 129 -64.5 230.5t-195.5 101.5t-221.5 -90t-98.5 -242zM281 1259.5q0 38.5 26.5 65.5t65.5 27t65.5 -27t26.5 -65.5t-26.5 -65.5t-65.5 -27t-65.5 27t-26.5 65.5zM592 1259.5q0 38.5 26.5 65.5t65.5 27t65.5 -27t26.5 -65.5t-26.5 -65.5t-65.5 -27t-65.5 27 t-26.5 65.5z" />
<glyph horiz-adv-x="409" d="M-37 1198l424 205l55 -121l-438 -164zM143 0v983h123v-983h-123z" />
<glyph horiz-adv-x="409" d="M-35 1282l55 121l424 -205l-41 -80zM143 0v983h123v-983h-123z" />
<glyph horiz-adv-x="409" d="M-106 1200l315 203l311 -203l-53 -80l-258 142l-258 -142zM143 0v983h123v-983h-123z" />
<glyph horiz-adv-x="409" d="M-43 1259.5q0 38.5 26.5 65.5t65.5 27t65.5 -27t26.5 -65.5t-26.5 -65.5t-65.5 -27t-65.5 27t-26.5 65.5zM143 0v983h123v-983h-123zM268 1259.5q0 38.5 27 65.5t65.5 27t65.5 -27t27 -65.5t-27 -65.5t-65.5 -27t-65.5 27t-27 65.5z" />
<glyph horiz-adv-x="1030" d="M143 0v983h117v-72q154 96 324 97q145 0 227 -82q55 -55 72.5 -124t17.5 -210v-592h-123v573q0 82 -2 116t-14 80t-41 75q-55 55 -154 55q-66 0 -140.5 -24.5t-114.5 -45t-46 -26.5v-803h-123zM209 1251q104 88 199 88q41 0 114.5 -23.5t110.5 -23.5q76 0 141 56l60 -82 q-92 -92 -203 -92q-39 0 -113 22.5t-112 22.5q-61 0 -138 -48z" />
<glyph horiz-adv-x="1071" d="M88 491.5q0 235.5 122 376t333 140.5q201 0 320.5 -141.5t119.5 -383.5q0 -231 -122 -369.5t-329 -138.5q-203 0 -323.5 140.5t-120.5 376zM215 495.5q0 -184.5 91 -298t231 -113.5q152 0 235.5 108.5t83.5 294.5q0 184 -91 299t-230 115q-147 0 -233.5 -110.5 t-86.5 -295zM301 1198l424 205l55 -121l-438 -164z" />
<glyph horiz-adv-x="1071" d="M88 491.5q0 235.5 122 376t333 140.5q201 0 320.5 -141.5t119.5 -383.5q0 -231 -122 -369.5t-329 -138.5q-203 0 -323.5 140.5t-120.5 376zM215 495.5q0 -184.5 91 -298t231 -113.5q152 0 235.5 108.5t83.5 294.5q0 184 -91 299t-230 115q-147 0 -233.5 -110.5 t-86.5 -295zM285 1282l55 121l424 -205l-41 -80z" />
<glyph horiz-adv-x="1071" d="M88 491.5q0 235.5 122 376t333 140.5q201 0 320.5 -141.5t119.5 -383.5q0 -231 -122 -369.5t-329 -138.5q-203 0 -323.5 140.5t-120.5 376zM215 495.5q0 -184.5 91 -298t231 -113.5q152 0 235.5 108.5t83.5 294.5q0 184 -91 299t-230 115q-147 0 -233.5 -110.5 t-86.5 -295zM225 1200l316 203l311 -203l-53 -80l-258 142l-258 -142z" />
<glyph horiz-adv-x="1071" d="M88 491.5q0 235.5 122 376t333 140.5q201 0 320.5 -141.5t119.5 -383.5q0 -231 -122 -369.5t-329 -138.5q-203 0 -323.5 140.5t-120.5 376zM215 495.5q0 -184.5 91 -298t231 -113.5q152 0 235.5 108.5t83.5 294.5q0 184 -91 299t-230 115q-147 0 -233.5 -110.5 t-86.5 -295zM285 1259.5q0 38.5 26.5 65.5t65.5 27t65.5 -27t26.5 -65.5t-26.5 -65.5t-65.5 -27t-65.5 27t-26.5 65.5zM596 1259.5q0 38.5 26.5 65.5t65.5 27t65.5 -27t26.5 -65.5t-26.5 -65.5t-65.5 -27t-65.5 27t-26.5 65.5z" />
<glyph horiz-adv-x="1071" d="M88 491.5q0 235.5 122 376t333 140.5q201 0 320.5 -141.5t119.5 -383.5q0 -231 -122 -369.5t-329 -138.5q-203 0 -323.5 140.5t-120.5 376zM215 495.5q0 -184.5 91 -298t231 -113.5q152 0 235.5 108.5t83.5 294.5q0 184 -91 299t-230 115q-147 0 -233.5 -110.5 t-86.5 -295zM227 1251q104 88 199 88q41 0 114.5 -23.5t110.5 -23.5q78 0 142 56l59 -82q-92 -92 -203 -92q-39 0 -112.5 22.5t-112.5 22.5q-61 0 -137 -48z" />
<glyph horiz-adv-x="1030" d="M129 332v48v42v561h123v-586q0 -68 2 -101.5t15.5 -77.5t39.5 -71q59 -59 154 -59q31 0 61.5 5t59 13.5t53.5 17.5t47.5 19.5t37.5 18.5t27.5 15t14.5 7v799h123v-983h-113v78q-147 -98 -319 -98q-150 0 -238 88q-18 18 -31.5 39.5t-23.5 39t-16.5 48t-9.5 44t-5 49.5 t-2 44zM270 1198l424 205l56 -121l-439 -164z" />
<glyph horiz-adv-x="1030" d="M129 332v48v42v561h123v-586q0 -68 2 -101.5t15.5 -77.5t39.5 -71q59 -59 154 -59q31 0 61.5 5t59 13.5t53.5 17.5t47.5 19.5t37.5 18.5t27.5 15t14.5 7v799h123v-983h-113v78q-147 -98 -319 -98q-150 0 -238 88q-18 18 -31.5 39.5t-23.5 39t-16.5 48t-9.5 44t-5 49.5 t-2 44zM246 1282l55 121l424 -205l-41 -80z" />
<glyph horiz-adv-x="1030" d="M129 332v48v42v561h123v-586q0 -68 2 -101.5t15.5 -77.5t39.5 -71q59 -59 154 -59q31 0 61.5 5t59 13.5t53.5 17.5t47.5 19.5t37.5 18.5t27.5 15t14.5 7v799h123v-983h-113v78q-147 -98 -319 -98q-150 0 -238 88q-18 18 -31.5 39.5t-23.5 39t-16.5 48t-9.5 44t-5 49.5 t-2 44zM199 1200l315 203l311 -203l-53 -80l-258 142l-258 -142z" />
<glyph horiz-adv-x="1030" d="M129 332v48v42v561h123v-586q0 -68 2 -101.5t15.5 -77.5t39.5 -71q59 -59 154 -59q31 0 61.5 5t59 13.5t53.5 17.5t47.5 19.5t37.5 18.5t27.5 15t14.5 7v799h123v-983h-113v78q-147 -98 -319 -98q-150 0 -238 88q-18 18 -31.5 39.5t-23.5 39t-16.5 48t-9.5 44t-5 49.5 t-2 44zM264 1259.5q0 38.5 26.5 65.5t65.5 27t66 -27t27 -65.5t-27 -65.5t-66 -27t-65.5 27t-26.5 65.5zM575 1259.5q0 38.5 27 65.5t66 27t65.5 -27t26.5 -65.5t-26.5 -65.5t-65.5 -27t-66 27t-27 65.5z" />
<glyph unicode="&#xa0;" horiz-adv-x="1132" d="M143 743v117h357l-6 506h145l-6 -506h356v-117h-358l-13 -993h-102l-14 993h-359z" />
<glyph unicode="&#xa1;" d="M311 1096q0 123 87 209t210 86t209 -86t86 -209t-86 -209t-209 -86t-210 86t-87 209zM406 1096q0 -84 59 -142.5t143 -58.5t142.5 58.5t58.5 142.5t-58.5 142t-142.5 58t-143 -58t-59 -142z" />
<glyph unicode="&#xa2;" d="M223 492q0 229 122 370.5t296 159.5v168h117v-164q68 -6 129 -29.5t87.5 -40t35.5 -24.5l-56 -86q-98 59 -196 69v-796q88 10 213 71l53 -92q-6 -8 -41 -26.5t-99.5 -40t-125.5 -27.5v-209h-117v207q-180 14 -299 142.5t-119 347.5zM350 510q0 -170 85 -273.5t206 -117.5 v792q-123 -20 -207 -127.5t-84 -273.5z" />
<glyph unicode="&#xa3;" d="M170 0v104q98 31 146.5 99.5t48.5 222.5q0 63 -9 170h-182v111h174q-20 147 -20 211q0 221 117.5 347t320.5 126q94 0 176 -28t115 -52.5t47 -40.5l-64 -82q-119 92 -266 92t-229 -94t-82 -268q0 -74 14 -211h400v-111h-390q0 -6 3.5 -51t3.5 -72q0 -281 -121 -358h696 v-115h-899z" />
<glyph unicode="&#xa5;" horiz-adv-x="1122" d="M393 518q0 68 50.5 118t117.5 50q70 0 119 -50t49 -118q0 -72 -49 -120t-119 -48q-68 0 -118 49t-50 119z" />
<glyph unicode="&#xa7;" horiz-adv-x="1079" d="M143 0v911q0 113 1 151t10.5 119t33 130t64.5 90q98 98 268 98q156 0 256.5 -94t100.5 -242q0 -82 -34 -151.5t-75 -106.5t-75 -73.5t-34 -63.5t35 -61q14 -14 107.5 -83t141.5 -139.5t48 -169.5q0 -158 -107.5 -249t-260.5 -91q-33 0 -67 4.5t-58.5 11.5t-49 15 t-38.5 14l-29 13l-12 8l45 100q102 -51 198 -51q109 0 177.5 58.5t68.5 156.5q0 92 -76 168q-25 25 -104.5 82t-114.5 92q-49 49 -49 107q0 45 36 94t79 86t78.5 98.5t35.5 128.5q0 102 -64.5 165t-166.5 63q-104 0 -170 -66q-39 -39 -57.5 -111.5t-18.5 -226.5v-985h-123z " />
<glyph unicode="&#xa9;" horiz-adv-x="1611" d="M98 682q0 293 209 501t500 208q293 0 499.5 -211t206.5 -498q0 -293 -207.5 -500t-498.5 -207q-293 0 -501 208t-208 499zM215 682q0 -242 174 -415t418 -173t417 173t173 415q0 248 -174 419t-416 171q-244 0 -418 -176t-174 -414zM459 676q0 180 102.5 293.5 t265.5 113.5q84 0 147.5 -29.5t84.5 -52.5l-53 -81q-90 59 -185 59q-109 0 -177.5 -82t-68.5 -209t68 -202.5t172 -75.5q33 0 61.5 4t53 13t39 15.5t32.5 16.5l19 10l47 -84q-16 -23 -92 -53.5t-166 -30.5q-154 0 -252 101.5t-98 273.5z" />
<glyph unicode="&#xaa;" horiz-adv-x="1488" d="M61 1280v86h519v-86h-209v-639h-99v639h-211zM610 641l82 725h105l207 -555l198 555h107l84 -725h-107l-57 526l-191 -526h-82l-190 526l-55 -526h-101z" />
<glyph unicode="&#xab;" horiz-adv-x="630" d="M76 1198l424 205l55 -121l-438 -164z" />
<glyph unicode="&#xac;" horiz-adv-x="647" d="M76 1259.5q0 38.5 26.5 65.5t65.5 27t65.5 -27t26.5 -65.5t-26.5 -65.5t-65.5 -27t-65.5 27t-26.5 65.5zM387 1259.5q0 38.5 26.5 65.5t65.5 27t65.5 -27t26.5 -65.5t-26.5 -65.5t-65.5 -27t-65.5 27t-26.5 65.5z" />
<glyph unicode="&#xad;" d="M121 336v108h379l92 150h-471v108h538l166 263l90 -58l-129 -205h308v-108h-375l-92 -150h467v-108h-531l-176 -277l-94 58l141 219h-313z" />
<glyph unicode="&#xae;" horiz-adv-x="1738" d="M41 0l770 1366h795v-111h-592v-485h555v-108h-555v-549h608v-113h-737v391h-488l-211 -391h-145zM457 504h428v751z" />
<glyph unicode="&#xaf;" horiz-adv-x="1435" d="M113 672q0 317 171 518t443 201q76 0 148.5 -19.5t104.5 -37t44 -27.5l111 194l94 -55l-117 -207q211 -211 211 -551q0 -315 -170 -514t-442 -199q-72 0 -138.5 17.5t-95 32t-43.5 24.5l-108 -188l-95 55l111 197q-14 12 -29.5 26.5t-55.5 66.5t-68.5 110.5t-52 155 t-23.5 200.5zM252 688q0 -289 156 -457l555 969q-33 29 -101.5 53.5t-146.5 24.5q-209 0 -336 -163t-127 -427zM494 156l8 -4q8 -6 18 -11.5t25.5 -12.5t35 -14.5t41 -13.5t47 -9t52.5 -3q213 0 338 166t125 442q0 123 -35 230.5t-60.5 144.5t-44.5 55z" />
<glyph unicode="&#xb0;" horiz-adv-x="1740" d="M193 565q0 121 81.5 205t200.5 84q188 0 395 -215q207 215 396 215q119 0 200.5 -84t81.5 -205q0 -117 -85 -201.5t-203 -84.5q-86 0 -175.5 51t-214.5 170q-125 -119 -214 -170t-175 -51q-119 0 -203.5 84.5t-84.5 201.5zM295 578q0 -78 55.5 -134.5t130.5 -56.5 q59 0 125 34t102.5 63.5t96.5 84.5q-63 63 -99 95t-98.5 63t-126.5 31q-80 0 -133 -53t-53 -127zM936 569q59 -55 96 -84.5t102.5 -63.5t125.5 -34q76 0 131 56.5t55 134.5q0 74 -53.5 127t-132.5 53q-63 0 -126 -31t-99 -63t-99 -95z" />
<glyph unicode="&#xb1;" d="M150 0v109h915v-109h-915zM150 629v108h403v434h109v-434h403v-108h-403v-426h-109v426h-403z" />
<glyph unicode="&#xb2;" d="M123 0v109h969v-109h-969zM123 647v82l921 447l48 -99l-820 -391l820 -387l-45 -98z" />
<glyph unicode="&#xb3;" d="M123 0v109h969v-109h-969zM123 299l819 387l-819 391l47 99l922 -447v-82l-924 -446z" />
<glyph unicode="&#xb5;" horiz-adv-x="1044" d="M143 -250v1233h123v-586q0 -68 2 -101.5t15.5 -77.5t40.5 -71q59 -59 153 -59q31 0 61.5 5t59.5 13.5t53.5 17.5t47 19.5t38 18.5t27.5 15t14 7v799h123v-983h-113v78q-147 -98 -319 -98q-113 0 -203 59v-289h-123z" />
<glyph unicode="&#xb6;" horiz-adv-x="1251" d="M193 500q0 233 112.5 370.5t308.5 137.5q160 0 301 -107q-20 225 -126.5 353t-268.5 128q-104 0 -244 -69l-53 94q18 12 50 28.5t109 40t146 23.5q240 0 385.5 -208t145.5 -562t-122 -555t-335 -201q-186 0 -297.5 144.5t-111.5 382.5zM322 493.5q0 -182.5 76.5 -293 t203.5 -110.5q152 0 238 164t86 455v51q-18 18 -46 40.5t-109 57.5t-163 35q-131 0 -208.5 -108.5t-77.5 -291z" />
<glyph unicode="&#xb7;" horiz-adv-x="1128" d="M193 0v78l372 620l-372 580v88h743v-109h-582l348 -555l-362 -593h596v-109h-743z" />
<glyph unicode="&#xb9;" horiz-adv-x="1370" d="M193 874v109h970v-109h-155v-559q0 -154 28 -182q31 -31 74 -31q35 0 68 4v-98q-51 -14 -99 -14q-84 0 -141 57q-53 53 -53 242v581h-422v-874h-123v874h-147z" />
<glyph unicode="&#xba;" horiz-adv-x="1286" d="M193 -412l43 99q92 -37 151 -37q88 0 133 45q61 61 62 205v1253q0 176 94 270q76 76 209 76q121 0 209 -53l-43 -98q-92 37 -152 36q-88 0 -133 -45q-61 -61 -61 -204v-1254q0 -176 -95 -270q-76 -76 -209 -76q-120 0 -208 53z" />
<glyph unicode="&#xbb;" horiz-adv-x="839" d="M127 848q0 242 420 242h33v20q0 117 -35 152q-39 39 -133 38q-102 0 -199 -59l-43 70q10 10 36.5 25.5t88 35t129.5 19.5q129 0 199 -70q35 -35 46 -81t11 -134v-467h-96v49q-104 -66 -222 -65q-104 0 -169.5 62.5t-65.5 162.5zM231 848q0 -57 38 -96t114 -39 q90 0 197 55v238h-35q-314 0 -314 -158z" />
<glyph unicode="&#xbf;" horiz-adv-x="1071" d="M88 492q0 236 123 376t332 140q53 0 105 -12.5t79 -26t33 -19.5l78 129l90 -55l-82 -139q137 -137 137 -402q0 -231 -122 -369.5t-329 -138.5q-106 0 -192 43l-74 -124l-92 53l76 129q-162 142 -162 416zM215 496q0 -186 100 -310l385 660q-63 55 -165 55 q-147 0 -233.5 -110.5t-86.5 -294.5zM399 119q61 -35 138 -35q152 0 235.5 108.5t83.5 294.5q0 176 -78 279z" />
<glyph unicode="&#xc0;" horiz-adv-x="1009" d="M147 -25q0 158 119 277q35 35 121 88t111 78q8 8 14 16t11 18.5t8.5 17.5t6.5 22.5t4 22.5t1 29v31v40v44h110q4 -78 4 -114q0 -80 -7 -113t-39.5 -65.5t-111.5 -88t-118 -94.5q-92 -92 -92 -209q0 -115 74.5 -187.5t193.5 -72.5q141 0 283 95l57 -91q-8 -10 -51 -35.5 t-135.5 -55t-184.5 -29.5q-172 0 -275.5 103t-103.5 273zM506 915.5q0 38.5 26.5 65.5t65.5 27t65.5 -27t26.5 -65.5t-26.5 -65.5t-65.5 -27t-65.5 27t-26.5 65.5z" />
<glyph unicode="&#xc1;" horiz-adv-x="593" d="M205 915.5q0 38.5 26.5 65.5t65.5 27t65.5 -27t26.5 -65.5t-26.5 -65.5t-65.5 -27t-65.5 27t-26.5 65.5zM221 -375l21 1034h110l27 -1034h-158z" />
<glyph unicode="&#xc2;" d="M121 573v109h973v-387h-119v278h-854z" />
<glyph unicode="&#xc3;" horiz-adv-x="1642" d="M193 860l348 121l311 -811l487 1329l111 -41l-547 -1458h-110l-324 840l-242 -82z" />
<glyph unicode="&#xc4;" d="M0 -420l39 98q82 -31 147 -30q76 0 117 41q53 53 98 278l7 31l124 598h-264l23 113h264l61 292q0 4 6.5 30t8.5 35t7 33.5t10 37t12.5 35t14.5 36.5l16 33q9 18 21.5 33.5t24.5 28.5q88 88 221 88q98 0 193 -48l-37 -98q-66 33 -147 33q-92 0 -140.5 -57.5t-78.5 -204.5 l-66 -307h313l-22 -113h-316l-127 -625q-49 -236 -94 -313q-16 -27 -33 -43q-80 -80 -206 -80q-93 0 -197 45z" />
<glyph unicode="&#xc5;" d="M156 358q100 137 250 138q84 0 215 -58.5t196 -58.5q74 0 150 84l92 -68q-109 -137 -240 -137q-82 0 -217 58.5t-199 58.5q-82 0 -153 -80zM156 645q100 137 250 137q84 0 215 -58t196 -58q74 0 150 84l92 -68q-109 -137 -240 -137q-82 0 -217 58.5t-199 58.5 q-82 0 -153 -80z" />
<glyph unicode="&#xc6;" horiz-adv-x="1435" d="M193 0l477 1366h102l471 -1366h-1050zM352 109h727l-360 1054z" />
<glyph unicode="&#xc7;" horiz-adv-x="952" d="M129 506l283 387l90 -59l-199 -328l199 -336l-90 -59zM449 506l282 387l90 -59l-198 -328l198 -336l-90 -59z" />
<glyph unicode="&#xc8;" horiz-adv-x="952" d="M131 170l199 336l-199 328l90 59l283 -387l-283 -395zM451 170l198 336l-198 328l90 59l282 -387l-282 -395z" />
<glyph unicode="&#xc9;" horiz-adv-x="1327" d="M129 76q0 39 26.5 65.5t65.5 26.5t65.5 -26.5t26.5 -65.5t-26.5 -65.5t-65.5 -26.5t-65.5 26.5t-26.5 65.5zM571 76q0 39 27 65.5t65.5 26.5t65.5 -26.5t27 -65.5t-27 -65.5t-65.5 -26.5t-65.5 26.5t-27 65.5zM1014 76q0 39 26.5 65.5t65.5 26.5t65.5 -26.5t26.5 -65.5 t-26.5 -65.5t-65.5 -26.5t-65.5 26.5t-26.5 65.5z" />
<glyph unicode="&#xca;" horiz-adv-x="483" />
<glyph unicode="&#xcb;" horiz-adv-x="1189" d="M23 0l497 1366h148l499 -1366h-139l-139 391h-596l-139 -391h-131zM332 504h518l-260 725zM362 1632l56 121l424 -205l-41 -80z" />
<glyph unicode="&#xcc;" horiz-adv-x="1189" d="M23 0l497 1366h148l499 -1366h-139l-139 391h-596l-139 -391h-131zM281 1548q104 88 198 88q41 0 115 -23.5t111 -23.5q78 0 141 56l59 -82q-92 -92 -203 -93q-39 0 -112.5 23t-112.5 23q-61 0 -137 -48zM332 504h518l-260 725z" />
<glyph unicode="&#xcd;" horiz-adv-x="1435" d="M113 672q0 317 171 518t443 201q260 0 428 -197t168 -506q0 -315 -170 -514t-442 -199q-258 0 -428 197t-170 500zM252 688q0 -262 132 -431t335 -169q213 0 339 166t126 442q0 258 -132 420t-339 162q-209 0 -335 -162t-126 -428zM399 1548q104 88 199 88 q41 0 114.5 -23.5t110.5 -23.5q78 0 142 56l59 -82q-92 -92 -203 -93q-39 0 -112.5 23t-112.5 23q-61 0 -137 -48z" />
<glyph unicode="&#xce;" horiz-adv-x="1800" d="M113 676q0 319 196 516q111 111 240 142.5t346 31.5h772v-111h-592v-485h555v-108h-555v-549h608v-113h-741q-240 0 -383 33t-250 137q-196 197 -196 506zM246 672q0 -266 162 -428q86 -86 196.5 -110.5t333.5 -24.5h8v1148h-59q-176 0 -285.5 -25.5t-202.5 -117.5 q-153 -153 -153 -442z" />
<glyph unicode="&#xcf;" horiz-adv-x="1775" d="M88 491.5q0 235.5 123 376t332 140.5q90 0 163.5 -28t117.5 -73t62.5 -70.5t31.5 -50.5l2 -4l6 11q6 10 13 22t20.5 30.5t31 36t39 36t50 35t61.5 28.5t73.5 19.5t85.5 7.5q174 0 281 -126t107 -350q0 -4 -2.5 -28.5t-2.5 -36.5h-704q0 -168 88 -270.5t250 -102.5 q33 0 65.5 4t59 11.5t50.5 14.5t43 16.5t32.5 15.5t23.5 12l11 6l55 -94q-4 -6 -45 -28.5t-128 -47t-177 -24.5q-158 0 -253.5 69.5t-131.5 147.5l-11 -17q-10 -18 -24.5 -35.5t-36 -42t-52 -46t-67.5 -40t-88 -30t-108 -11.5q-203 0 -325 140.5t-122 376zM215 495.5 q0 -184.5 91 -298t231 -113.5q152 0 235.5 108.5t83.5 294.5q0 184 -91 299t-230 115q-147 0 -233.5 -110.5t-86.5 -295zM983 571h580q0 129 -64.5 230.5t-196 101.5t-221.5 -90t-98 -242z" />
<glyph unicode="&#xd0;" horiz-adv-x="1318" d="M174 465v108h971v-108h-971z" />
<glyph unicode="&#xd1;" horiz-adv-x="2035" d="M174 465v108h1688v-108h-1688z" />
<glyph unicode="&#xd2;" horiz-adv-x="673" d="M72 995q0 121 55 227.5t121 172.5l84 -64q-113 -152 -113 -336h-147zM342 995q0 121 55.5 227.5t120.5 172.5l84 -64q-113 -152 -113 -336h-147z" />
<glyph unicode="&#xd3;" horiz-adv-x="673" d="M72 1030q113 152 112 336h148q0 -121 -55.5 -227.5t-120.5 -171.5zM342 1030q113 152 113 336h147q0 -121 -55 -227.5t-121 -171.5z" />
<glyph unicode="&#xd4;" horiz-adv-x="403" d="M72 995q0 121 55 227.5t121 172.5l84 -64q-113 -152 -113 -336h-147z" />
<glyph unicode="&#xd5;" horiz-adv-x="403" d="M72 1030q113 152 112 336h148q0 -121 -55.5 -227.5t-120.5 -171.5z" />
<glyph unicode="&#xd6;" d="M121 465v108h973v-108h-973zM514 92q0 39 26.5 65.5t65.5 26.5t66.5 -26.5t27.5 -65.5t-26.5 -65.5t-65.5 -26.5t-66.5 26.5t-27.5 65.5zM514 950q0 39 26.5 65.5t65.5 26.5t66.5 -26.5t27.5 -65.5t-26.5 -65.5t-65.5 -26.5t-66.5 26.5t-27.5 65.5z" />
<glyph unicode="&#xd7;" horiz-adv-x="1363" d="M193 688l440 678h94l444 -678l-440 -688h-98zM332 688l352 -565l352 565l-356 541z" />
<glyph unicode="&#xd8;" horiz-adv-x="989" d="M-41 -430l33 100q86 -25 139 -24q102 0 160 57q43 43 71.5 99.5t75.5 172.5l-405 1008h135l338 -850l305 850h127l-389 -1053q-78 -211 -172 -305q-90 -90 -242 -90q-72 0 -176 35zM254 1259.5q0 38.5 26.5 65.5t65.5 27t65.5 -27t26.5 -65.5t-26.5 -65.5t-65.5 -27 t-65.5 27t-26.5 65.5zM565 1259.5q0 38.5 26.5 65.5t65.5 27t66 -27t27 -65.5t-27 -65.5t-66 -27t-65.5 27t-26.5 65.5z" />
<glyph unicode="&#xd9;" horiz-adv-x="1107" d="M53 1366h144l364 -700l361 700h133l-437 -827v-539h-129v539zM313 1577q0 39 27 65.5t65.5 26.5t65.5 -26.5t27 -65.5t-27 -65.5t-65.5 -26.5t-65.5 26.5t-27 65.5zM625 1577q0 39 26.5 65.5t65.5 26.5t65.5 -26.5t26.5 -65.5t-26.5 -65.5t-65.5 -26.5t-65.5 26.5 t-26.5 65.5z" />
<glyph unicode="&#xda;" d="M76 -14l975 1450l88 -64l-975 -1446z" />
<glyph unicode="&#xdb;" d="M66 516v100h131q-2 39 -2 76q0 20 2 58h-131v100h137q0 31 10 85t45 136t88 151.5t150.5 120t220.5 50.5q84 0 165 -29t113.5 -50.5t44.5 -33.5l-61 -88q-127 90 -258 90q-98 0 -173 -41t-114 -96t-62.5 -123t-29.5 -108t-6 -64h534v-100h-542q-2 -27 -2 -74q0 -25 2 -60 h542v-100h-534q0 -25 6 -64.5t29.5 -106t61.5 -121t110.5 -94.5t167.5 -40q33 0 66.5 5t62 14.5t53.5 19.5t46.5 21.5t34.5 19.5t25 18l15 9l63 -88q-166 -133 -364 -134q-123 0 -219.5 47.5t-148.5 113t-87 146t-45 138t-10 96.5h-137z" />
<glyph unicode="&#xdc;" horiz-adv-x="632" d="M129 506l283 387l90 -59l-199 -328l199 -336l-90 -59z" />
<glyph unicode="&#xdd;" horiz-adv-x="632" d="M131 170l199 336l-199 328l90 59l283 -387l-283 -395z" />
<glyph unicode="&#xde;" horiz-adv-x="1015" d="M47 883v100h174v170q0 176 92 268q78 78 211 78q131 0 207 -63l-49 -86q-61 41 -145 41q-86 0 -136 -50q-57 -57 -57 -200v-158h528v-983h-122v883h-406v-883h-123v883h-174z" />
<glyph unicode="&#xdf;" horiz-adv-x="1015" d="M47 883v100h174v170q0 176 92 268q78 78 211 78q96 0 158 -37l-39 -94q-57 23 -108 23q-84 0 -134 -50q-57 -57 -57 -200v-158h406v492h122v-1475h-122v883h-406v-883h-123v883h-174z" />
<glyph unicode="&#xe0;" horiz-adv-x="1132" d="M143 340v115h363l-4 288h-359v117h357l-6 506h145l-6 -506h356v-117h-358l-2 -288h360v-115h-362l-9 -590h-102l-8 590h-365z" />
<glyph unicode="&#xe1;" horiz-adv-x="442" d="M129 520q0 39 26.5 65.5t65.5 26.5t65.5 -26.5t26.5 -65.5t-26.5 -65.5t-65.5 -26.5t-65.5 26.5t-26.5 65.5z" />
<glyph unicode="&#xe2;" horiz-adv-x="403" d="M72 -180q113 152 112 336h148q0 -121 -55.5 -227.5t-120.5 -172.5z" />
<glyph unicode="&#xe3;" horiz-adv-x="673" d="M72 -180q113 152 112 336h148q0 -121 -55.5 -227.5t-120.5 -172.5zM342 -180q113 152 113 336h147q0 -121 -55 -227.5t-121 -172.5z" />
<glyph unicode="&#xe4;" horiz-adv-x="2193" d="M92 1016q0 178 80 277.5t223 99.5q133 0 213 -96.5t80 -258.5q0 -172 -80 -269t-221 -97q-135 0 -215 92t-80 252zM207 1020q0 -121 47 -188.5t133 -67.5q88 0 137 71.5t49 202.5q0 123 -47 192.5t-131 69.5q-90 0 -139 -73.5t-49 -206.5zM215 -14l975 1450l88 -64 l-973 -1446zM809 317q0 178 80 277.5t223 99.5q133 0 213 -96t80 -258q0 -172 -80 -269.5t-221 -97.5q-135 0 -215 92t-80 252zM924 322q0 -121 47 -188.5t133 -67.5q88 0 137 71.5t49 202.5q0 123 -47 192.5t-131 69.5q-90 0 -139 -73.5t-49 -206.5zM1505 317 q0 178 80 277.5t223 99.5q133 0 213 -96t80 -258q0 -172 -79.5 -269.5t-221.5 -97.5q-135 0 -215 92t-80 252zM1620 322q0 -121 47 -188.5t133 -67.5q88 0 137.5 71.5t49.5 202.5q0 123 -47.5 192.5t-131.5 69.5q-90 0 -139 -73.5t-49 -206.5z" />
<glyph unicode="&#xe5;" horiz-adv-x="1189" d="M23 0l497 1366h148l499 -1366h-139l-139 391h-596l-139 -391h-131zM274 1548l316 203l311 -203l-53 -80l-258 142l-258 -142zM332 504h518l-260 725z" />
<glyph unicode="&#xe6;" horiz-adv-x="1019" d="M176 0v1366h721v-111h-592v-485h555v-108h-555v-547h608v-115h-737zM211 1548l315 203l312 -203l-54 -80l-258 142l-258 -142z" />
<glyph unicode="&#xe7;" horiz-adv-x="1189" d="M23 0l497 1366h148l499 -1366h-139l-139 391h-596l-139 -391h-131zM332 504h518l-260 725zM356 1548l424 205l56 -121l-439 -164z" />
<glyph unicode="&#xe8;" horiz-adv-x="1019" d="M176 0v1366h721v-111h-592v-485h555v-108h-555v-547h608v-115h-737zM264 1577q0 39 26.5 65.5t65.5 26.5t66 -26.5t27 -65.5t-27 -65.5t-66 -26.5t-65.5 26.5t-26.5 65.5zM575 1577q0 39 27 65.5t66 26.5t65.5 -26.5t26.5 -65.5t-26.5 -65.5t-65.5 -26.5t-66 26.5 t-27 65.5z" />
<glyph unicode="&#xe9;" horiz-adv-x="1019" d="M176 0v1366h721v-111h-592v-485h555v-108h-555v-547h608v-115h-737zM289 1632l55 121l424 -205l-41 -80z" />
<glyph unicode="&#xea;" horiz-adv-x="483" d="M0 1548l424 205l55 -121l-438 -164zM184 0v1366h131v-1366h-131z" />
<glyph unicode="&#xeb;" horiz-adv-x="483" d="M-74 1548l316 203l311 -203l-53 -80l-258 142l-258 -142zM184 0v1366h131v-1366h-131z" />
<glyph unicode="&#xec;" horiz-adv-x="483" d="M2 1577q0 39 26.5 65.5t65.5 26.5t65.5 -26.5t26.5 -65.5t-26.5 -65.5t-65.5 -26.5t-65.5 26.5t-26.5 65.5zM184 0v1366h131v-1366h-131zM313 1577q0 39 27 65.5t65.5 26.5t65.5 -26.5t27 -65.5t-27 -65.5t-65.5 -26.5t-65.5 26.5t-27 65.5z" />
<glyph unicode="&#xed;" horiz-adv-x="483" d="M20 1630l56 121l424 -205l-41 -80zM184 0v1366h131v-1366h-131z" />
<glyph unicode="&#xee;" horiz-adv-x="1435" d="M113 672q0 317 171 518t443 201q260 0 428 -197t168 -506q0 -315 -170 -514t-442 -199q-258 0 -428 197t-170 500zM252 688q0 -262 132 -431t335 -169q213 0 339 166t126 442q0 258 -132 420t-339 162q-209 0 -335 -162t-126 -428zM455 1548l424 205l55 -121l-438 -164z " />
<glyph unicode="&#xef;" horiz-adv-x="1435" d="M113 672q0 317 171 518t443 201q260 0 428 -197t168 -506q0 -315 -170 -514t-442 -199q-258 0 -428 197t-170 500zM252 688q0 -262 132 -431t335 -169q213 0 339 166t126 442q0 258 -132 420t-339 162q-209 0 -335 -162t-126 -428zM389 1548l316 203l311 -203l-53 -80 l-258 142l-259 -142z" />
<glyph unicode="&#xf0;" horiz-adv-x="1859" d="M98 795q0 344 243 584.5t589 240.5q350 0 590.5 -241.5t240.5 -583.5t-240.5 -583t-590.5 -241q-348 0 -590 241t-242 583zM229 797q0 -256 159 -436.5t370 -235.5v516h-174v100h174v179q0 188 92 280q78 78 211 78q131 0 207 -64l-49 -86q-61 41 -146 41q-86 0 -135 -49 q-57 -57 -57 -200v-179h315v-100h-315v-537q25 -4 49 -4q287 0 492.5 206t205.5 489q0 285 -204.5 491.5t-493.5 206.5q-287 0 -494 -205.5t-207 -490.5z" />
<glyph unicode="&#xf1;" horiz-adv-x="1435" d="M113 672q0 317 171 518t443 201q260 0 428 -197t168 -506q0 -315 -170 -514t-442 -199q-258 0 -428 197t-170 500zM252 688q0 -262 132 -431t335 -169q213 0 339 166t126 442q0 258 -132 420t-339 162q-209 0 -335 -162t-126 -428zM473 1630l55 121l424 -205l-41 -80z " />
<glyph unicode="&#xf2;" horiz-adv-x="1263" d="M156 588v39v739h129v-864q0 -80 2 -119t22.5 -98.5t61.5 -100.5q96 -96 268 -96q158 0 246 88q68 68 81 152t13 315v723h129v-657v-85v-85q0 -20 -1 -73.5t-5 -75t-9.5 -64.5t-14.5 -65.5t-21.5 -54.5t-29.5 -55.5t-40 -46.5q-129 -129 -354 -129t-359 134 q-57 57 -83.5 138t-30.5 144.5t-4 196.5zM393 1548l424 205l55 -121l-438 -164z" />
<glyph unicode="&#xf3;" horiz-adv-x="1263" d="M156 588v39v739h129v-864q0 -80 2 -119t22.5 -98.5t61.5 -100.5q96 -96 268 -96q158 0 246 88q68 68 81 152t13 315v723h129v-657v-85v-85q0 -20 -1 -73.5t-5 -75t-9.5 -64.5t-14.5 -65.5t-21.5 -54.5t-29.5 -55.5t-40 -46.5q-129 -129 -354 -129t-359 134 q-57 57 -83.5 138t-30.5 144.5t-4 196.5zM305 1548l316 203l311 -203l-53 -80l-258 142l-259 -142z" />
<glyph unicode="&#xf4;" horiz-adv-x="1263" d="M156 588v39v739h129v-864q0 -80 2 -119t22.5 -98.5t61.5 -100.5q96 -96 268 -96q158 0 246 88q68 68 81 152t13 315v723h129v-657v-85v-85q0 -20 -1 -73.5t-5 -75t-9.5 -64.5t-14.5 -65.5t-21.5 -54.5t-29.5 -55.5t-40 -46.5q-129 -129 -354 -129t-359 134 q-57 57 -83.5 138t-30.5 144.5t-4 196.5zM375 1632l55 121l424 -205l-41 -80z" />
<glyph unicode="&#xf5;" horiz-adv-x="409" d="M143 0v983h123v-983h-123z" />
<glyph unicode="&#xf6;" horiz-adv-x="778" d="M76 1200l315 203l311 -203l-53 -80l-258 142l-258 -142z" />
<glyph unicode="&#xf7;" horiz-adv-x="776" d="M76 1251q104 88 198 88q41 0 115 -23.5t111 -23.5q78 0 141 56l59 -82q-92 -92 -202 -92q-39 0 -113 22.5t-113 22.5q-61 0 -137 -48z" />
<glyph unicode="&#xf8;" horiz-adv-x="768" d="M76 1204v111h614v-111h-614z" />
<glyph unicode="&#xf9;" horiz-adv-x="696" d="M76 1386h104q20 -129 168 -129t168 129h105q-12 -119 -85 -186t-188 -67t-187.5 67t-84.5 186z" />
<glyph unicode="&#xfa;" horiz-adv-x="335" d="M76 1259.5q0 38.5 26.5 65.5t65.5 27t65.5 -27t26.5 -65.5t-26.5 -65.5t-65.5 -27t-65.5 27t-26.5 65.5z" />
<glyph unicode="&#xfb;" horiz-adv-x="555" d="M76 1292q0 84 59.5 142.5t140.5 58.5q84 0 142.5 -59.5t58.5 -141.5q0 -84 -58.5 -142t-142 -58t-142 58t-58.5 142zM162 1292q0 -47 33.5 -80.5t80.5 -33.5q49 0 83 33.5t34 80.5q0 49 -33.5 83t-83.5 34q-47 0 -80.5 -35t-33.5 -82z" />
<glyph unicode="&#xfc;" horiz-adv-x="684" d="M180 -406l33 74q39 -25 98 -24q55 0 78 25.5t23 58.5q0 37 -23.5 60.5t-62.5 23.5q-43 0 -82 -29l-54 35l37 182h88l-18 -109q14 10 51 11q76 0 122 -47.5t46 -122.5q0 -82 -58.5 -130t-135.5 -48q-95 -1 -142 40z" />
<glyph unicode="&#xfd;" horiz-adv-x="655" d="M76 1073l108 361l131 -52l-139 -344zM340 1073l109 361l131 -52l-142 -344z" />
<glyph unicode="&#xfe;" horiz-adv-x="559" d="M76 -229q0 125 125 211l100 -31q-6 -4 -24.5 -18.5t-26.5 -21.5t-23.5 -20.5t-21.5 -24.5t-15.5 -26.5t-12.5 -32t-3 -36.5q0 -59 34 -93t93 -34q25 0 51.5 6t43 12t33.5 14.5t20 8.5l34 -72q-90 -59 -200 -59q-94 0 -150.5 58.5t-56.5 158.5z" />
<glyph unicode="&#xff;" horiz-adv-x="778" d="M76 1323l53 80l258 -141l258 141l57 -80l-315 -203z" />
<glyph unicode="&#x152;" horiz-adv-x="837" d="M86 1006q0 176 90 280.5t248 104.5q150 0 239 -105.5t89 -286.5q0 -172 -91.5 -275t-244.5 -103q-150 0 -240 105.5t-90 279.5zM188 1007.5q0 -133.5 65.5 -215t166.5 -81.5q106 0 167.5 78.5t61.5 214.5q0 133 -66.5 216t-164.5 83q-104 0 -167 -81t-63 -214.5z" />
<glyph unicode="&#x153;" horiz-adv-x="1679" d="M193 0v113h317q-139 84 -212 240.5t-73 355.5q0 299 172 490.5t443 191.5q268 0 440 -191.5t172 -490.5q0 -195 -70.5 -352.5t-212.5 -243.5h318v-113h-500v109q328 133 328 587q0 262 -132 426t-343 164q-213 0 -345.5 -164t-132.5 -426q0 -455 330 -587v-109h-499z" />
<glyph unicode="&#x178;" horiz-adv-x="1622" d="M88 264q0 313 553 314h66v59q0 156 -50 207q-57 57 -186 57q-135 0 -272 -78l-52 86q10 10 45 31t119 45.5t174 24.5q172 0 267 -95q33 -33 51 -75q115 168 344 168q174 0 280.5 -126t106.5 -350q0 -4 -2 -28.5t-2 -36.5h-705q0 -168 88 -270.5t250 -102.5q33 0 66 4 t59.5 11.5t50 14.5t43 16.5t32.5 15.5t24 12l10 6l55 -94q-4 -6 -45 -28.5t-128 -47t-177 -24.5q-207 0 -328 131q-168 -129 -393 -129q-156 0 -250 76.5t-94 205.5zM215 264q0 -78 63.5 -124t159.5 -46q197 0 326 99q-57 111 -57 256v24h-70q-422 0 -422 -209zM829 571h580 q0 129 -64.5 230.5t-195.5 101.5t-221.5 -90t-98.5 -242z" />
<glyph unicode="&#x2c6;" d="M160 518l401 848h94l400 -848h-133l-316 690l-315 -690h-131z" />
<glyph unicode="&#x2dc;" horiz-adv-x="491" d="M-438 225q84 135 240 135q84 0 215 -58.5t196 -58.5q74 0 150 84l78 -71q-102 -133 -226 -134q-82 0 -217 58.5t-198 58.5q-82 0 -154 -80z" />
<glyph unicode="&#x2000;" horiz-adv-x="933" />
<glyph unicode="&#x2001;" horiz-adv-x="1869" />
<glyph unicode="&#x2002;" horiz-adv-x="933" />
<glyph unicode="&#x2003;" horiz-adv-x="1869" />
<glyph unicode="&#x2004;" horiz-adv-x="622" />
<glyph unicode="&#x2005;" horiz-adv-x="466" />
<glyph unicode="&#x2006;" horiz-adv-x="311" />
<glyph unicode="&#x2007;" horiz-adv-x="311" />
<glyph unicode="&#x2008;" horiz-adv-x="233" />
<glyph unicode="&#x2009;" horiz-adv-x="372" />
<glyph unicode="&#x200a;" horiz-adv-x="102" />
<glyph unicode="&#x2010;" horiz-adv-x="1003" d="M174 465v108h655v-108h-655z" />
<glyph unicode="&#x2011;" horiz-adv-x="1003" d="M174 465v108h655v-108h-655z" />
<glyph unicode="&#x2012;" horiz-adv-x="1003" d="M174 465v108h655v-108h-655z" />
<glyph unicode="&#x2013;" horiz-adv-x="1024" d="M174 465v108h676v-108h-676z" />
<glyph unicode="&#x2014;" horiz-adv-x="2048" d="M174 465v108h1700v-108h-1700z" />
<glyph unicode="&#x2018;" horiz-adv-x="630" d="M76 1282l55 121l424 -205l-41 -80z" />
<glyph unicode="&#x2019;" horiz-adv-x="362" d="M113 1366h137l-12 -469h-113z" />
<glyph unicode="&#x201c;" horiz-adv-x="610" d="M113 1366h137l-12 -469h-113zM358 1366h140l-13 -469h-112z" />
<glyph unicode="&#x201d;" horiz-adv-x="610" d="M113 1366h137l-12 -469h-113zM358 1366h140l-13 -469h-112z" />
<glyph unicode="&#x2026;" horiz-adv-x="1327" d="M1014 76q0 39 26.5 65.5t65.5 26.5t65.5 -26.5t26.5 -65.5t-26.5 -65.5t-65.5 -26.5t-65.5 26.5t-26.5 65.5zM571 76q0 39 26.5 65.5t65.5 26.5t65.5 -26.5t26.5 -65.5t-26.5 -65.5t-65.5 -26.5t-65.5 26.5t-26.5 65.5zM129 76q0 39 26.5 65.5t65.5 26.5t65.5 -26.5 t26.5 -65.5t-26.5 -65.5t-65.5 -26.5t-65.5 26.5t-26.5 65.5z" />
<glyph unicode="&#x202f;" horiz-adv-x="372" />
<glyph unicode="&#x2039;" d="M123 479v82l921 447l48 -99l-820 -391l820 -387l-45 -98z" />
<glyph unicode="&#x203a;" d="M123 131l819 387l-819 391l47 99l922 -447v-82l-924 -446z" />
<glyph unicode="&#x205f;" horiz-adv-x="466" />
<glyph unicode="&#x20ac;" d="M219 -184l62 96q162 -92 292 -92q121 0 185.5 54t64.5 134q0 70 -47 117q-49 49 -215 116.5t-235 137.5q-80 80 -80 180q0 188 239 279q-193 98 -192 266q0 131 95 209t253 78q180 0 305 -101l-57 -88q-12 10 -38 24.5t-87.5 34t-120.5 19.5q-102 0 -159.5 -45 t-57.5 -115q0 -63 41 -104q45 -45 218 -122t226 -130q84 -84 84 -195q0 -199 -225 -286q100 -53 143 -113.5t43 -144.5q0 -137 -101 -230.5t-269 -93.5q-209 0 -367 115zM375 578q0 -59 47 -107q45 -45 252 -133q188 72 188 209q0 70 -45 115q-51 51 -221 126 q-104 -33 -162.5 -87.5t-58.5 -122.5z" />
<glyph unicode="&#x2122;" horiz-adv-x="2879" d="M1250 0l155 1366h148l434 -1178l424 1178h149l160 -1366h-135l-129 1176l-424 -1176h-108l-428 1176l-125 -1176h-121zM66 1255v111h958v-111h-414v-1255h-131v1255h-413z" />
<glyph unicode="&#xe000;" horiz-adv-x="985" d="M0 985h985v-985h-985v985z" />
<glyph unicode="&#xfb01;" horiz-adv-x="1130" d="M844 1315q0 33 24.5 57.5t57.5 24.5t57.5 -24.5t24.5 -57.5t-24.5 -57.5t-57.5 -24.5t-57.5 24.5t-24.5 57.5zM864 0v983h123v-983h-123zM47 883v100h174v158q0 188 92 280q78 78 211 78q131 0 207 -63l-49 -86q-61 41 -145 41q-86 0 -136 -50q-57 -57 -57 -200v-158h315 v-100h-315v-883h-123v883h-174z" />
<glyph unicode="&#xfb02;" horiz-adv-x="1130" d="M864 0v1475h123v-1475h-123zM47 883v100h174v158q0 188 92 280q78 78 211 78q131 0 207 -63l-49 -86q-61 41 -145 41q-86 0 -136 -50q-57 -57 -57 -200v-158h315v-100h-315v-883h-123v883h-174z" />
<glyph unicode="&#xfb03;" horiz-adv-x="1851" d="M1565 1315q0 33 24.5 57.5t57.5 24.5t57.5 -24.5t24.5 -57.5t-24.5 -57.5t-57.5 -24.5t-57.5 24.5t-24.5 57.5zM1585 0v983h123v-983h-123zM768 883v100h174v158q0 188 92 280q78 78 211 78q131 0 207 -63l-49 -86q-61 41 -145 41q-86 0 -136 -50q-57 -57 -57 -200v-158 h315v-100h-315v-883h-123v883h-174zM47 883v100h174v158q0 188 92 280q78 78 211 78q131 0 207 -63l-49 -86q-61 41 -145 41q-86 0 -136 -50q-57 -57 -57 -200v-158h315v-100h-315v-883h-123v883h-174z" />
<glyph unicode="&#xfb04;" horiz-adv-x="1851" d="M1585 0v1475h123v-1475h-123zM768 883v100h174v158q0 188 92 280q78 78 211 78q131 0 207 -63l-49 -86q-61 41 -145 41q-86 0 -136 -50q-57 -57 -57 -200v-158h315v-100h-315v-883h-123v883h-174zM47 883v100h174v158q0 188 92 280q78 78 211 78q131 0 207 -63l-49 -86 q-61 41 -145 41q-86 0 -136 -50q-57 -57 -57 -200v-158h315v-100h-315v-883h-123v883h-174z" />
</font>
</defs>
</svg>
